<?xml version="1.0" encoding="UTF-8" standalone="no"?>
<svg
   width="2013.484"
   height="2229.7493"
   viewBox="0 0 2013.484 2229.7493"
   version="1.1"
   xml:space="preserve"
   style="clip-rule:evenodd;fill-rule:evenodd;stroke-linejoin:round;stroke-miterlimit:2"
   id="svg5"
   sodipodi:docname="Arca_Logo_Vertical_Grafite_SVG_1.svg"
   inkscape:version="1.4.3 (0d15f75042, 2025-12-25)"
   xmlns:inkscape="http://www.inkscape.org/namespaces/inkscape"
   xmlns:sodipodi="http://sodipodi.sourceforge.net/DTD/sodipodi-0.dtd"
   xmlns="http://www.w3.org/2000/svg"
   xmlns:svg="http://www.w3.org/2000/svg"><defs
     id="defs5" /><sodipodi:namedview
     id="namedview5"
     pagecolor="#ffffff"
     bordercolor="#000000"
     borderopacity="0.25"
     inkscape:showpageshadow="2"
     inkscape:pageopacity="0.0"
     inkscape:pagecheckerboard="0"
     inkscape:deskcolor="#d1d1d1"
     inkscape:zoom="0.22162963"
     inkscape:cx="1024.2313"
     inkscape:cy="1028.7433"
     inkscape:window-width="1920"
     inkscape:window-height="951"
     inkscape:window-x="0"
     inkscape:window-y="32"
     inkscape:window-maximized="1"
     inkscape:current-layer="svg5" /><path
     d="m 544.157,566.558 c -7.65,6.375 -15.075,12.6 -22.167,18.592 26.646,-31.246 57.275,-66.592 84.729,-97.646 C 660.127,427.087 721.59,362.85 776.915,318.1 912.707,208.271 1079.473,84.404004 1089.84,76.867004 c 8.279,-6.017 67.179,-53.104 94.529,-75.0040002 2.571,-2.04599995 6.088,-2.44199995 9.046,-1.01299995 2.958,1.42899995 4.837,4.42499995 4.837,7.70799995 -0.042,55.2420002 -0.158,223.4329962 -0.025,283.6039962 0,1.875 0.908,3.633 2.433,4.729 1.521,1.1 3.479,1.396 5.258,0.808 18.804,-6.217 37.454,-11.938 56.192,-17.175 75.667,-25.921 171.3,-59.458 209.013,-72.833 3.575,-1.317 7.562,-0.804 10.688,1.375 3.121,2.179 4.983,5.75 4.979,9.558 -0.221,64.062 -1.021,295.321 -1.254,362.312 -0.017,3.946 1.808,7.675 4.933,10.083 3.121,2.413 7.192,3.229 11.004,2.217 70.154,-18.671 129,-34.725 171.029,-46.775 l 329.254,-81.779 c 3.238,-0.804 6.654,0.154 9,2.529 2.346,2.371 3.263,5.8 2.421,9.029 -15.917,56.071 -83.021,255.188 -272.983,427.838 -223.65,203.271 -391.388,224.737 -439.317,239.717 -59.425,10.504 -103.104,19.012 -113.996,20.671 -42.896,6.542 -96.104,11.804 -215.417,9.271 -210.871,-4.471 -262.633,-26.837 -262.633,-26.837 87.954,20.075 190.658,16.988 240.5,13.717 52.4,-3.275 144.287,-18.458 218.412,-35.712 179.558,-37.058 302.871,-136.096 372.804,-197.438 69.933,-61.346 117.779,-127.804 140.683,-167.063 11.121,-18.442 40.475,-66.542 26.096,-79.521 -11.267,-10.167 -79.6,14.708 -93.679,18.492 -93.217,24.038 -292.775,90.988 -513.742,137.513 C 878.938,883.409 509.717,951.2 353.901,950.055 226.863,949.122 160.118,947.522 108.384,938.859 L 59.867,926.784 c -9.829,-3.413 -21.092,-7.417 -23.692,-8.3 1.683,0.817 3.375,1.629 5.075,2.429 C 30.992,916.955 16.988,910.471 5.2,901.159 1.8,897.742 0,895.651 0,895.651 c 7.325,5.175 16.304,9.863 27.483,13.717 1.808,0.362 4.267,0.846 7.346,1.408 21.883,2.317 63.058,-0.846 88.742,-11.013 13.679,-5.412 78.067,-38.242 78.067,-38.242 l 77.971,-48.55 c 53.758,-35.504 136.012,-101.312 147.325,-109.25 3.604,-2.525 200.704,-133.925 226.617,-149.446 34.138,-20.446 177.258,-101.846 298.925,-155.008 49.417,-21.596 94.088,-40.85 136.083,-57.888 5.992,-2.425 10.146,-7.967 10.796,-14.392 2.162,-34.233 2.087,-108.388 1.871,-147.096 0,-4.875 -2.671,-9.358 -6.967,-11.667 -4.296,-2.308 -9.513,-2.071 -13.575,0.625 -36.975,24.642 -113.433,75.392 -136.296,88.842 -6.562,3.862 -16.021,9.875 -27.829,17.783 -93.933,59.096 -274.792,179.875 -372.404,291.083 z m 846.717,-173.279 c 0.042,-10.308 -4.854,-20.012 -13.167,-26.108 -8.317,-6.096 -19.042,-7.846 -28.863,-4.708 -49.233,15.717 -125.538,40.083 -138.117,44.117 -30.275,9.712 -171.738,58.279 -270.4,100.196 -98.662,41.921 -291.412,139.192 -333.462,161.883 -73.592,39.708 -144.746,84.912 -185.154,112.404 -26.463,20.871 -82.113,60.642 -91.204,74.475 -4.4,6.492 -16.008,23.408 -11.137,28.463 3.817,3.958 28.896,-3.629 34.029,-4.7 30.867,-6.121 93.996,-23.242 165.5,-35.438 l -0.158,0.254 C 684.02,803.242 891.258,750.425 1084.374,701.325 l 0.258,-0.146 125.342,-32.346 0.304,-0.275 c 19.854,-5.346 61.171,-16.529 71.763,-19.846 0,0 24.467,-6.183 50.113,-12.662 34.054,-8.608 57.958,-39.188 58.092,-74.313 0.188,-50.808 0.458,-122.637 0.629,-168.458 z M 35.395,910.85 l -0.508,-0.067 0.146,0.029 0.363,0.037 z"
     style="fill:#efefef"
     id="path1" /><path
     d="M 554.857,1938.916 V 1587.153 L 159.565,1938.916 H 61.078 l 559.104,-500.433 v 500.433 z"
     style="fill:#efefef"
     id="path2" /><path
     d="m 920.798,1759.449 c 72.9,-20.113 114.438,-83.404 114.438,-160.867 0,-94.579 -59.038,-160.1 -186.608,-160.1 H 697.003 v 71.492 h 175.683 c 51.025,0 92.567,27.55 92.567,93.075 0,64.779 -42.996,91.604 -94.025,91.604 H 697.003 v 244.246 h 69.971 v -172.754 h 76.537 l 121.742,172.771 h 81.642 L 920.799,1759.449 Z"
     style="fill:#efefef;fill-rule:nonzero"
     id="path3" /><path
     d="m 1073.794,1689.407 c 0,68.563 27.675,130.763 69.192,176 42.208,45.237 101.712,73.508 167.442,73.508 112.783,0 201.35,-76.338 229.025,-188.725 h -68.5 c -24.908,74.925 -87.179,118.042 -160.525,118.042 -46.358,0 -88.563,-20.496 -119.008,-53.013 -30.446,-32.512 -49.817,-76.337 -49.817,-125.812 0,-50.892 19.371,-94.717 49.817,-127.233 30.446,-32.512 72.65,-53.008 119.008,-53.008 71.267,0 130.775,37.458 156.375,111.679 h 69.192 c -27.679,-111.679 -114.858,-182.363 -225.567,-182.363 -65.729,0 -125.233,28.979 -167.442,73.508 -41.517,45.238 -69.192,107.438 -69.192,177.417 z"
     style="fill:#efefef;fill-rule:nonzero"
     id="path4" /><path
     d="m 1769.777,1438.483 -227.742,500.208 h 74 l 46.279,-104.692 h 0.233 l 107.229,-241.387 107.229,241.387 h 0.233 l 46.263,104.692 h 74.033 l -227.758,-500.208 z"
     style="fill:#efefef;fill-rule:nonzero"
     id="path5" /><g
     transform="matrix(153.85823,0,0,153.85823,2019.4191,2197.3698)"
     id="g5" /><text
     x="49.20694"
     y="2197.3701"
     style="font-size:153.858px;font-family:ArialMT, Arial, sans-serif;fill:#efefef"
     id="text5">P<tspan
   x="181.0629 261.53189 376.33292 439.74893 554.5509 626.52991 741.33191 847.49402 919.474 982.88904 1097.691 1169.671 1284.473 1347.8881 1411.3029 1526.1049 1640.9069 1755.7089 1827.6879 1942.4899"
   y="2197.3701 2197.3701 2197.3701 2197.3701 2197.3701 2197.3701 2197.3701 2197.3701 2197.3701 2197.3701 2197.3701 2197.3701 2197.3701 2197.3701 2197.3701 2197.3701 2197.3701 2197.3701 2197.3701 2197.3701"
   id="tspan5">rojetos inteligentes</tspan></text></svg>
