<?xml version="1.0" encoding="UTF-8" standalone="no"?>
<svg
   width="3917.0942"
   height="1323.4418"
   viewBox="0 0 3917.0942 1323.4418"
   version="1.1"
   xml:space="preserve"
   style="clip-rule:evenodd;fill-rule:evenodd;stroke-linejoin:round;stroke-miterlimit:2"
   id="svg5"
   sodipodi:docname="Arca_Logo_Horizontal_Grafite_SVG_2.svg"
   inkscape:version="1.4.3 (0d15f75042, 2025-12-25)"
   xmlns:inkscape="http://www.inkscape.org/namespaces/inkscape"
   xmlns:sodipodi="http://sodipodi.sourceforge.net/DTD/sodipodi-0.dtd"
   xmlns="http://www.w3.org/2000/svg"
   xmlns:svg="http://www.w3.org/2000/svg"><defs
     id="defs5" /><sodipodi:namedview
     id="namedview5"
     pagecolor="#ffffff"
     bordercolor="#000000"
     borderopacity="0.25"
     inkscape:showpageshadow="2"
     inkscape:pageopacity="0.0"
     inkscape:pagecheckerboard="0"
     inkscape:deskcolor="#d1d1d1"
     showgrid="false"
     inkscape:zoom="0.15671581"
     inkscape:cx="1860.0548"
     inkscape:cy="542.38304"
     inkscape:window-width="1920"
     inkscape:window-height="951"
     inkscape:window-x="0"
     inkscape:window-y="32"
     inkscape:window-maximized="1"
     inkscape:current-layer="svg5" /><path
     d="m 456.847,475.65685 c -6.421,5.35 -12.658,10.575 -18.612,15.608 22.375,-26.233 48.087,-55.908 71.137,-81.979 44.842,-50.721 96.438,-104.654 142.888,-142.221 114.004,-92.208 254.017,-196.204001 262.717,-202.529001 6.95,-5.054 56.4,-44.588 79.362,-62.9710002 2.158,-1.72099997 5.108,-2.04999997 7.596,-0.84999997 2.483,1.19599997 4.058,3.71199997 4.058,6.47099997 -0.033,46.3790002 -0.129,187.5830012 -0.021,238.1000012 0,1.575 0.767,3.054 2.042,3.971 1.279,0.921 2.921,1.175 4.417,0.679 15.788,-5.221 31.446,-10.021 47.175,-14.421 63.525,-21.758 143.817,-49.917 175.479,-61.146 3,-1.104 6.35,-0.675 8.971,1.154 2.621,1.829 4.183,4.825 4.183,8.025 -0.188,53.783 -0.858,247.938 -1.058,304.183 -0.01,3.313 1.521,6.442 4.146,8.462 2.621,2.025 6.037,2.713 9.238,1.858 58.896,-15.671 108.304,-29.15 143.588,-39.267 l 276.425,-68.658 c 2.717,-0.675 5.592,0.129 7.558,2.121 1.967,1.992 2.742,4.875 2.033,7.583 -13.367,47.075 -69.704,214.242 -229.183,359.192 -187.767,170.658 -328.592,188.679 -368.829,201.254 -49.892,8.817 -86.562,15.958 -95.708,17.354 -36.013,5.492 -80.683,9.908 -180.854,7.783 -177.038,-3.754 -220.492,-22.533 -220.492,-22.533 73.837,16.858 160.067,14.262 201.912,11.517 43.992,-2.746 121.133,-15.496 183.367,-29.979 150.75,-31.117 254.275,-114.263 312.987,-165.763 58.713,-51.504 98.883,-107.296 118.112,-140.258 9.338,-15.483 33.983,-55.867 21.908,-66.758 -9.458,-8.538 -66.829,12.346 -78.646,15.525 -78.262,20.179 -245.8,76.388 -431.317,115.446 -185.513,39.054 -495.492,95.971 -626.308,95.008 -106.654,-0.783 -162.692,-2.125 -206.125,-9.4 l -40.729,-10.138 c -8.254,-2.862 -17.708,-6.225 -19.892,-6.967 1.412,0.687 2.833,1.367 4.258,2.037 -8.608,-3.321 -20.367,-8.763 -30.263,-16.583 -2.854,-2.867 -4.367,-4.625 -4.367,-4.625 6.15,4.346 13.688,8.283 23.075,11.517 1.517,0.304 3.579,0.708 6.167,1.183 18.371,1.946 52.942,-0.708 74.504,-9.246 11.483,-4.546 65.542,-32.104 65.542,-32.104 l 65.458,-40.762 c 45.133,-29.808 114.188,-85.058 123.688,-91.717 3.025,-2.125 168.5,-112.438 190.258,-125.471 28.658,-17.167 148.817,-85.504 250.958,-130.138 41.492,-18.129 78.992,-34.296 114.25,-48.6 5.029,-2.033 8.521,-6.688 9.062,-12.083 1.821,-28.742 1.754,-90.996 1.575,-123.496 0,-4.092 -2.246,-7.854 -5.85,-9.796 -3.608,-1.938 -7.987,-1.733 -11.4,0.525 -31.038,20.692 -95.233,63.3 -114.425,74.588 -5.512,3.242 -13.45,8.296 -23.367,14.933 -78.858,49.612 -230.7,151.013 -312.65,244.379 z m 710.837,-138.371 c 0.038,-10.308 -4.858,-20.013 -13.171,-26.108 -8.312,-6.096 -19.042,-7.846 -28.862,-4.708 -41.221,13.158 -99.183,31.671 -109.183,34.875 -25.417,8.158 -144.183,48.929 -227.017,84.121 -82.829,35.196 -244.654,116.858 -279.958,135.908 -61.783,33.338 -121.521,71.288 -155.446,94.371 -22.217,17.521 -68.938,50.908 -76.571,62.525 -3.696,5.45 -13.438,19.654 -9.35,23.896 3.204,3.325 24.258,-3.046 28.571,-3.946 25.913,-5.138 78.913,-19.513 138.942,-29.75 l -0.129,0.212 c 138.758,-34.317 312.746,-78.658 474.879,-119.879 l 0.217,-0.125 105.229,-27.154 0.254,-0.233 c 16.671,-4.487 51.358,-13.879 60.25,-16.658 0,0 14.992,-3.792 32.783,-8.287 34.058,-8.608 57.963,-39.188 58.092,-74.312 0.15,-39.054 0.338,-89.233 0.471,-124.746 z m -1137.971,427.421 -0.425,-0.054 0.121,0.021 z"
     style="fill:#efefef"
     id="path1" /><path
     d="m 2184.755,985.96085 v -421.321 l -473.45,421.321 h -117.967 l 669.658,-599.387 v 599.387 h -78.242 z"
     style="fill:#efefef"
     id="path2" /><path
     d="m 2623.055,771.00285 c 87.313,-24.083 137.067,-99.892 137.067,-192.671 0,-113.279 -70.713,-191.758 -223.508,-191.758 H 2355.01 v 85.629 h 210.421 c 61.117,0 110.871,33 110.871,111.479 0,77.587 -51.5,109.717 -112.617,109.717 H 2355.01 v 292.542 h 83.804 v -206.912 h 91.675 l 145.812,206.933 h 97.783 l -151.029,-214.958 z"
     style="fill:#efefef;fill-rule:nonzero"
     id="path3" /><path
     d="m 2806.305,687.11085 c 0,82.121 33.146,156.621 82.871,210.804 50.554,54.179 121.825,88.046 200.554,88.046 135.092,0 241.175,-91.433 274.3,-226.042 h -82.042 c -29.833,89.737 -104.417,141.379 -192.258,141.379 -55.525,0 -106.079,-24.55 -142.542,-63.492 -36.467,-38.946 -59.671,-91.433 -59.671,-150.696 0,-60.954 23.204,-113.442 59.671,-152.383 36.462,-38.946 87.017,-63.496 142.542,-63.496 85.342,0 156.633,44.871 187.3,133.763 h 82.875 c -33.167,-133.763 -137.583,-218.421 -270.175,-218.421 -78.729,0 -150,34.708 -200.554,88.046 -49.725,54.179 -82.871,128.679 -82.871,212.492 z"
     style="fill:#efefef;fill-rule:nonzero"
     id="path4" /><path
     d="m 3639.905,386.57385 -272.792,599.117 h 88.667 l 55.417,-125.392 h 0.292 l 128.417,-289.117 128.417,289.117 h 0.292 l 55.417,125.392 h 88.667 l -272.792,-599.117 z"
     style="fill:#efefef;fill-rule:nonzero"
     id="path5" /><g
     transform="matrix(183.26465,0,0,183.26465,3924.1631,1284.8734)"
     id="g5" /><text
     x="1577.3911"
     y="1284.8738"
     style="font-size:183.265px;font-family:ArialMT, Arial, sans-serif;fill:#efefef"
     id="text5">P<tspan
   x="1734.448 1830.2971 1967.04 2042.5759 2179.3191 2265.0559 2401.7991 2528.252 2613.989 2689.5251 2826.2681 2912.0051 3048.749 3124.2849 3199.8201 3336.5642 3473.3069 3610.05 3695.7869 3832.531"
   y="1284.8738 1284.8738 1284.8738 1284.8738 1284.8738 1284.8738 1284.8738 1284.8738 1284.8738 1284.8738 1284.8738 1284.8738 1284.8738 1284.8738 1284.8738 1284.8738 1284.8738 1284.8738 1284.8738 1284.8738"
   id="tspan5">rojetos inteligentes</tspan></text></svg>
